PathFileType	4	(X/Y/Z)	G:\TennisProject\Miami_Dimitrov_Sinner_masked_Sports2D\Miami_Dimitrov_Sinner_masked_Sports2D_m_person01.trc
DataRate	CameraRate	NumFrames	NumMarkers	Units	OrigDataRate	OrigDataStartFrame	OrigNumFrames
25	25	8	22	m	25	374	499
Frame#	Time	Hip			RHip			RKnee			RAnkle			RBigToe			RSmallToe			RHeel			LHip			LKnee			LAnkle			LBigToe			LSmallToe			LHeel			Neck			Head			Nose			RShoulder			RElbow			RWrist			LShoulder			LElbow			LWrist		
		X1	Y1	Z1	X2	Y2	Z2	X3	Y3	Z3	X4	Y4	Z4	X5	Y5	Z5	X6	Y6	Z6	X7	Y7	Z7	X8	Y8	Z8	X9	Y9	Z9	X10	Y10	Z10	X11	Y11	Z11	X12	Y12	Z12	X13	Y13	Z13	X14	Y14	Z14	X15	Y15	Z15	X16	Y16	Z16	X17	Y17	Z17	X18	Y18	Z18	X19	Y19	Z19	X20	Y20	Z20	X21	Y21	Z21	X22	Y22	Z22
374	14.96	21.95281264974387	-8.686588276309205	0.0	22.215838408458378	-8.721777084138774	0.0	22.833423191527494	-9.290473840014156	0.0	22.783145003067904	-10.123975408214255	0.0	23.033734036122254	-10.377314289425714	0.0	23.060945872021982	-10.424787312613198	0.0	22.68582893477303	-10.23701504204459	0.0	21.745871558257686	-8.727647573872371	0.0	22.049647788415957	-9.06689577322926	0.0	22.351986340853145	-9.8062356475513	0.0	22.64341879659352	-9.81458522785741	0.0	22.506910745984968	-9.905044871135534	0.0	22.362119756192488	-9.997654707044376	0.0	22.15924720150015	-7.36187845956573	0.0	22.44944734233066	-6.738918308944649	0.0	22.38885355750255	-7.117428484576005	0.0	22.512841673349637	-7.562146656743646	0.0	22.334141339230833	-7.424150269997035	0.0	22.058354755927827	-6.9968035588993205	0.0	21.721467745317835	-7.413143029352288	0.0	21.126119064376937	-7.632193024557815	0.0	21.2655068192944	-7.292816075511488	0.0
375	15.0	22.22910934843867	-8.755095731075393	0.0	22.500728170964397	-8.78456283327559	0.0	23.10912985037069	-9.309024617406731	0.0	23.35796966292167	-10.19389002908597	0.0	23.743738669172565	-10.310626480494577	0.0	23.76010086625484	-10.38938116799002	0.0	23.299131808171712	-10.323947341718169	0.0	22.010216235700458	-8.792820745456659	0.0	22.25717151508441	-9.100362232049244	0.0	22.59970474647235	-9.886081846149303	0.0	22.86676750722792	-9.83504538711914	0.0	22.72345915026217	-9.905829153241113	0.0	22.62416025760634	-10.05468301351658	0.0	22.400113034246775	-7.422202853085882	0.0	22.68318168445463	-6.7904950440684955	0.0	22.574191120311315	-7.1558974100064505	0.0	22.731752544366984	-7.587237819877899	0.0	22.370280348117994	-7.301877573042261	0.0	22.000771325301926	-7.015685541219639	0.0	21.99365697292262	-7.5027958042841805	0.0	21.435918702108683	-7.813207095738365	0.0	21.436828900504636	-7.43779578104079	0.0
376	15.040000000000001	22.509104305757422	-8.801159587769524	0.0	22.78267158174136	-8.829342826395875	0.0	23.36719017438082	-9.361841575634402	0.0	23.88833207508417	-10.217306405296656	0.0	24.271644425677586	-10.248449396772196	0.0	24.32023283174054	-10.323257466843728	0.0	23.90012837158595	-10.360760713846295	0.0	22.263601480753678	-8.84367698283427	0.0	22.3929897015125	-9.095168452510242	0.0	22.71079033308994	-9.94798510118603	0.0	22.898255620553314	-9.892506886379788	0.0	22.737695046329243	-9.915676810877033	0.0	22.75439924082566	-10.09957011382851	0.0	22.621882360843497	-7.469930113951032	0.0	22.869407306436973	-6.835178599595507	0.0	22.684151309405944	-7.180849064379224	0.0	22.925694740245238	-7.591700634134855	0.0	22.54391659361057	-7.329484773331178	0.0	22.17431352236453	-7.249792180360475	0.0	22.237616225670035	-7.578633587848727	0.0	21.792535266234836	-8.025144029032358	0.0	21.6657792649998	-7.651794066320947	0.0
377	15.08	22.780933635318284	-8.831995914077615	0.0	23.049672692464004	-8.862245114951783	0.0	23.594589003304783	-9.424861216258307	0.0	24.293318312625388	-10.189371842906514	0.0	24.56509435679028	-10.196507412824298	0.0	24.680019170239568	-10.242437393944028	0.0	24.386733247667696	-10.325037039114742	0.0	22.519490748216516	-8.895740445736017	0.0	22.46455065757445	-9.06338971221898	0.0	22.737663676231975	-9.953269723809123	0.0	22.83002081253947	-9.921277190529564	0.0	22.662393396427774	-9.928729972254114	0.0	22.807663961374313	-10.105615160411315	0.0	22.811495417321666	-7.52620316675397	0.0	22.989330224978247	-6.861171306644032	0.0	22.758970736055197	-7.2133043327881925	0.0	23.095071472539953	-7.608206467485846	0.0	22.76476835378998	-7.491051429609501	0.0	22.44678742042426	-7.509487181890503	0.0	22.444758092296432	-7.645427489060163	0.0	22.165334226174693	-8.233471351919297	0.0	21.92187559439569	-7.868760562502069	0.0
378	15.120000000000001	23.024421687262347	-8.8837192760697	0.0	23.28490652897815	-8.910845679801314	0.0	23.79935865725078	-9.485112716358348	0.0	24.58506637436503	-10.177416904959117	0.0	24.712097753968393	-10.188310748295548	0.0	24.877528079758406	-10.202822272340375	0.0	24.72931023609761	-10.29332157317322	0.0	22.75974459980727	-8.96498256915511	0.0	22.491343825576987	-9.01320801139653	0.0	22.74333774721164	-9.924518572460656	0.0	22.789591518616177	-9.910076418471405	0.0	22.609706650711978	-9.939759198884474	0.0	22.839217631857785	-10.093134458674589	0.0	22.96151014881714	-7.584291735331312	0.0	23.046237457073474	-6.885895756013949	0.0	22.84080797295076	-7.2629707483801536	0.0	23.245079754447758	-7.650629691302109	0.0	22.995947486231955	-7.70311546416036	0.0	22.712166450596122	-7.648004028304025	0.0	22.628758585575486	-7.725533298253701	0.0	22.517994613814743	-8.404158898213392	0.0	22.175860980310222	-8.04832558854801	0.0
379	15.16	23.218721947517924	-8.954170161374075	0.0	23.47802259755871	-8.978113547144883	0.0	23.97694344632358	-9.535403655034523	0.0	24.79800696535753	-10.205815337403777	0.0	24.812029417972553	-10.215856595366846	0.0	24.997518662296756	-10.219424433969477	0.0	24.955027891292257	-10.310031402222087	0.0	22.953405077478752	-9.031077297818472	0.0	22.499942925602692	-8.965047494107933	0.0	22.764519270998036	-9.903481915864448	0.0	22.797475456731583	-9.897062562231575	0.0	22.606670882985114	-9.94940752902865	0.0	22.868008267546916	-10.080880188541542	0.0	23.080973707430722	-7.615748488155271	0.0	23.077695447671985	-6.927177446137239	0.0	22.915493281858442	-7.311248803342098	0.0	23.3809164278219	-7.695544211913376	0.0	23.209509009995205	-7.876659550323396	0.0	22.881442844671643	-7.715128420517623	0.0	22.795490232581127	-7.815159464035364	0.0	22.820954629198734	-8.513192703968462	0.0	22.407003762502793	-8.190540607864826	0.0
380	15.200000000000001	23.360601021063985	-9.003196714860835	0.0	23.62325557944969	-9.036900326159694	0.0	24.111558482990276	-9.565890188951359	0.0	24.934934858684922	-10.233341136931875	0.0	24.916344782780556	-10.244374461596802	0.0	25.09731359581028	-10.250579632542188	0.0	25.090036018830595	-10.33511889317038	0.0	23.0952908890064	-9.071723726372047	0.0	22.516261292504197	-8.950637920957004	0.0	22.82088910707544	-9.908783834717156	0.0	22.79447387904452	-9.897460838893007	0.0	22.64462757741962	-9.958129174906583	0.0	22.920836854260163	-10.08385122688339	0.0	23.17719555911892	-7.614330709517047	0.0	23.110445046070645	-6.974148778767345	0.0	22.95528717535398	-7.341899207172109	0.0	23.48802433904341	-7.715107366852149	0.0	23.33276026492235	-7.935462764108047	0.0	22.924095530562518	-7.792416248807582	0.0	22.926245202955382	-7.880889418674047	0.0	23.044120815215557	-8.559454275248353	0.0	22.588299334815392	-8.30143496193749	0.0
381	15.24	23.46132116287134	-9.01125654402542	0.0	23.721850709958947	-9.059370055556416	0.0	24.201173498065536	-9.577439336681023	0.0	25.016989174540907	-10.237937869484947	0.0	25.02247097402293	-10.262562853131037	0.0	25.18571087405643	-10.261130736737138	0.0	25.165026764659597	-10.334730122457024	0.0	23.19529659432403	-9.088668825924684	0.0	22.54881846116071	-8.978584098608115	0.0	22.920878470687974	-9.930097786755201	0.0	22.787099490067142	-9.901895977820713	0.0	22.717095170615814	-9.969499883982602	0.0	23.03246000949368	-10.107327530347009	0.0	23.229370868085695	-7.60638225503303	0.0	23.120053312754354	-7.005576287425527	0.0	22.950294775838255	-7.3668764675327445	0.0	23.5365590234199	-7.71235578778993	0.0	23.343110691880604	-7.903522105928838	0.0	22.898411469631604	-7.839537897226284	0.0	22.997998349232	-7.908298023723979	0.0	23.147096202401965	-8.572487606912922	0.0	22.683610049758318	-8.378237480966634	0.0
